<svg xmlns="http://www.w3.org/2000/svg" width="512" height="512" viewBox="0 0 512 512" role="img" aria-labelledby="title">
  <title id="title">Money bag icon</title>
  <rect width="512" height="512" rx="112" fill="#09090b"/>
  <circle cx="256" cy="268" r="188" fill="#16a34a"/>
  <path d="M184 154c8-37 33-66 72-66s64 29 72 66c-19 13-45 21-72 21s-53-8-72-21Z" fill="#bbf7d0"/>
  <path d="M192 147c17 17 39 25 64 25s47-8 64-25l21 41c-23 20-51 30-85 30s-62-10-85-30l21-41Z" fill="#f0fdf4"/>
  <path d="M145 335c0-91 48-150 111-150s111 59 111 150c0 64-43 93-111 93s-111-29-111-93Z" fill="#f0fdf4"/>
  <path d="M257 397c-12 0-24-2-35-7s-20-12-26-22l31-20c7 11 17 16 30 16 16 0 25-6 25-17 0-9-8-15-29-21-34-10-52-26-52-52 0-25 17-43 43-49v-28h30v27c21 4 37 15 48 33l-31 20c-7-11-17-17-29-17-14 0-22 5-22 15 0 9 8 15 30 22 33 10 51 25 51 51 0 26-18 45-47 51v29h-30v-28Z" fill="#14532d"/>
</svg>
